<svg version="1.1" id="Layer_1" xmlns="http://www.w3.org/2000/svg" xmlns:xlink="http://www.w3.org/1999/xlink" x="0px" y="0px"
	 width="100%" viewBox="0 0 400 400" enable-background="new 0 0 400 400" xml:space="preserve">
<path fill="#3772ff" opacity="1.000000" stroke="none" 
	d="
M363.000000,401.000000 
	C242.037643,401.000000 121.575302,401.000000 1.056475,401.000000 
	C1.056475,267.746002 1.056475,134.491959 1.056475,1.118964 
	C134.212265,1.118964 267.424683,1.118964 400.818542,1.118964 
	C400.818542,134.333115 400.818542,267.666565 400.818542,401.000000 
	C388.492035,401.000000 375.996002,401.000000 363.000000,401.000000 
M285.695221,329.984894 
	C279.991547,324.511780 274.287842,319.038635 268.184692,313.182190 
	C258.896790,318.619995 248.946655,324.445526 238.958679,330.293213 
	C245.762314,343.171295 254.946793,352.594879 267.324982,359.092133 
	C285.240479,368.495850 304.216583,369.978119 323.649536,366.683777 
	C337.238770,364.380035 349.376740,358.585327 358.170959,347.398834 
	C376.966034,323.491089 369.674805,286.727875 342.450348,270.295593 
	C332.673462,264.394440 321.961243,260.054901 311.749695,254.857635 
	C305.396484,251.624069 298.837830,248.617188 293.002441,244.593384 
	C287.289154,240.653809 285.828979,234.281693 287.274628,227.620041 
	C288.645660,221.302231 293.029602,217.400909 299.226562,216.264053 
	C309.252228,214.424835 318.089203,216.632706 324.463562,225.353378 
	C325.892426,227.308228 327.468658,229.155334 329.103363,231.210846 
	C338.757812,224.722336 347.948120,218.545731 358.436554,211.496719 
	C351.634186,204.665070 346.135895,197.903870 339.434448,192.688782 
	C327.947815,183.749908 314.067993,182.657852 300.029877,183.036743 
	C278.807831,183.609497 260.581085,195.602005 253.535538,214.202377 
	C246.772644,232.056534 249.328171,256.525879 266.255798,270.507843 
	C274.096497,276.984161 283.340057,281.897034 292.339508,286.799286 
	C302.242340,292.193634 312.736298,296.495880 322.702362,301.783508 
	C329.193207,305.227295 331.787262,311.262390 330.985443,318.606689 
	C330.237305,325.459290 326.093353,329.813171 320.045929,332.296753 
	C308.562805,337.012695 297.287933,335.928070 285.695221,329.984894 
M189.500015,185.066574 
	C156.084045,185.066574 122.668060,185.066574 89.188454,185.066574 
	C89.188454,196.598190 89.188454,207.164017 89.188454,218.120117 
	C106.472076,218.120117 123.398392,218.120117 140.870270,218.120117 
	C140.870270,267.547760 140.870270,316.584442 140.870270,365.758179 
	C153.338196,365.758179 165.252457,365.758179 177.739182,365.758179 
	C177.739182,316.478821 177.739182,267.441254 177.739182,217.806870 
	C195.341660,217.806870 212.377014,217.806870 229.514679,217.806870 
	C229.514679,208.064423 229.397690,198.920090 229.574509,189.781433 
	C229.641602,186.314377 228.462387,185.177261 224.981857,185.211121 
	C213.489471,185.322968 201.994202,185.137756 189.500015,185.066574 
z"/>
<path fill="#FEFDFF" opacity="1.000000" stroke="none" 
	d="
M286.013489,330.173096 
	C297.287933,335.928070 308.562805,337.012695 320.045929,332.296753 
	C326.093353,329.813171 330.237305,325.459290 330.985443,318.606689 
	C331.787262,311.262390 329.193207,305.227295 322.702362,301.783508 
	C312.736298,296.495880 302.242340,292.193634 292.339508,286.799286 
	C283.340057,281.897034 274.096497,276.984161 266.255798,270.507843 
	C249.328171,256.525879 246.772644,232.056534 253.535538,214.202377 
	C260.581085,195.602005 278.807831,183.609497 300.029877,183.036743 
	C314.067993,182.657852 327.947815,183.749908 339.434448,192.688782 
	C346.135895,197.903870 351.634186,204.665070 358.436554,211.496719 
	C347.948120,218.545731 338.757812,224.722336 329.103363,231.210846 
	C327.468658,229.155334 325.892426,227.308228 324.463562,225.353378 
	C318.089203,216.632706 309.252228,214.424835 299.226562,216.264053 
	C293.029602,217.400909 288.645660,221.302231 287.274628,227.620041 
	C285.828979,234.281693 287.289154,240.653809 293.002441,244.593384 
	C298.837830,248.617188 305.396484,251.624069 311.749695,254.857635 
	C321.961243,260.054901 332.673462,264.394440 342.450348,270.295593 
	C369.674805,286.727875 376.966034,323.491089 358.170959,347.398834 
	C349.376740,358.585327 337.238770,364.380035 323.649536,366.683777 
	C304.216583,369.978119 285.240479,368.495850 267.324982,359.092133 
	C254.946793,352.594879 245.762314,343.171295 238.958679,330.293213 
	C248.946655,324.445526 258.896790,318.619995 268.184692,313.182190 
	C274.287842,319.038635 279.991547,324.511780 286.013489,330.173096 
z"/>
<path fill="#FEFDFF" opacity="1.000000" stroke="none" 
	d="
M190.000031,185.066574 
	C201.994202,185.137756 213.489471,185.322968 224.981857,185.211121 
	C228.462387,185.177261 229.641602,186.314377 229.574509,189.781433 
	C229.397690,198.920090 229.514679,208.064423 229.514679,217.806870 
	C212.377014,217.806870 195.341660,217.806870 177.739182,217.806870 
	C177.739182,267.441254 177.739182,316.478821 177.739182,365.758179 
	C165.252457,365.758179 153.338196,365.758179 140.870270,365.758179 
	C140.870270,316.584442 140.870270,267.547760 140.870270,218.120117 
	C123.398392,218.120117 106.472076,218.120117 89.188454,218.120117 
	C89.188454,207.164017 89.188454,196.598190 89.188454,185.066574 
	C122.668060,185.066574 156.084045,185.066574 190.000031,185.066574 
z"/>
</svg>